<svg width="25" height="25" viewBox="0 0 25 25" fill="none" xmlns="http://www.w3.org/2000/svg">
<g clip-path="url(#clip0_49_2)">
<path d="M2.64321 3.20911C2.64321 6.55889 5.37952 8.56877 10.8521 9.6266L16.6494 10.6492C21.8438 11.5659 24.9975 13.8226 24.9975 17.4898C25.0439 19.0765 24.3482 20.628 23.096 21.8974C23.096 18.2303 20.5916 16.2557 14.6088 15.0568L8.90426 14.0695C4.31282 13.2937 0.788086 11.4249 0.788086 7.44042C0.788086 5.9242 1.43738 4.40798 2.64321 3.20911Z" fill="#F04939"/>
<path d="M19.5252 16.5726C21.9832 17.7715 23.0963 19.464 23.0963 21.897C21.0093 23.9069 17.4382 25 13.2178 25C6.12192 25 1.0667 22.3202 0 17.701H6.81759C7.69877 19.8166 10.0177 20.8039 13.1714 20.8039C16.928 20.8392 19.4788 19.2877 19.5252 16.5726ZM2.64355 3.17348C4.63781 1.19887 8.0698 0 12.2438 0C19.5252 0 23.6992 2.92666 24.7659 7.01693H18.1802C17.4382 5.39492 15.6294 4.12553 12.3366 4.12553C8.76547 4.16079 6.35381 5.71227 6.21467 8.18054C3.82482 7.17848 2.5508 5.21862 2.64355 3.17348Z" fill="#F37368"/>
</g>
<defs>
<clipPath id="clip0_49_2">
<rect width="25" height="25" fill="white"/>
</clipPath>
</defs>
</svg>
